<svg xmlns="http://www.w3.org/2000/svg" xmlns:xlink="http://www.w3.org/1999/xlink"><symbol id="icon-arrow-down"><path d="M8.085 8.667l6.675-6.675a.815.815 0 00.24-.58.815.815 0 00-.24-.58L14.27.34a.822.822 0 00-1.16 0L7.502 5.945 1.892.333a.815.815 0 00-.58-.24.816.816 0 00-.581.24L.24.825a.815.815 0 00-.24.58c0 .22.085.426.24.58l6.68 6.682c.156.155.363.24.583.24.22 0 .427-.085.582-.24z" fill="#000"/></symbol><symbol id="icon-arrow-up"><path d="M8.298 1L.288 9.01A.977.977 0 000 9.706c0 .264.102.51.288.696l.59.59a.986.986 0 001.392 0l6.726-6.726L15.73 11a.978.978 0 00.696.287.979.979 0 00.697-.288l.59-.59A.978.978 0 0018 9.714a.977.977 0 00-.288-.696L9.695 1a.979.979 0 00-.698-.287.979.979 0 00-.7.287z" fill="#fff"/></symbol><symbol id="icon-like"><path d="M33.781.695c-2.496 0-4.784.791-6.802 2.351-1.933 1.496-3.221 3.4-3.979 4.786-.758-1.385-2.046-3.29-3.98-4.786-2.017-1.56-4.305-2.35-6.801-2.35C5.253.695 0 6.392 0 13.947 0 22.11 6.553 27.695 16.475 36.15a571.533 571.533 0 015.579 4.798 1.435 1.435 0 001.892 0c1.985-1.735 3.895-3.363 5.58-4.8C39.447 27.697 46 22.112 46 13.95 46 6.392 40.747.694 33.781.694z" fill="#fff"/></symbol><symbol id="icon-menu-close"><path d="M1 23.721L23 1m0 22.721L1 1" stroke="#000" stroke-opacity=".2" stroke-linecap="round" stroke-linejoin="round"/></symbol><symbol id="icon-menu-open"><path fill-rule="evenodd" clip-rule="evenodd" d="M3.75 21h22.5v-1H3.75v1zm0-6.25h22.5v-1H3.75v1zm0-7.25v1h22.5v-1H3.75z" fill="#000"/></symbol><symbol id="icon-tick"><path d="M4.527 7.388a1.161 1.161 0 01-1.643 0L.34 4.844a1.161 1.161 0 011.642-1.642l1.516 1.515c.115.115.3.115.415 0L8.018.613A1.161 1.161 0 019.66 2.255L4.527 7.388z" fill="#fff"/></symbol></svg>